<svg width="37" height="10" viewBox="0 0 37 10" fill="none" xmlns="http://www.w3.org/2000/svg">
<path fill-rule="evenodd" clip-rule="evenodd" d="M1.79171 0.338673C1.7139 0.520526 1.36359 1.31053 1.01329 2.09411C0.662878 2.8777 0.291564 3.71339 0.188155 3.95132L0 4.38382H0.645439H1.29078L1.46608 3.92588L1.64129 3.46794H2.65631H3.67132L3.86805 3.92588L4.06477 4.38382H4.68022C5.0188 4.38382 5.29599 4.34942 5.29629 4.3075C5.2965 4.26557 4.87684 3.28089 4.36378 2.11955L3.43075 0.00793756H2.6819C1.93418 0.00793756 1.93295 0.00834461 1.79171 0.338673ZM5.60173 2.19588V4.38382H6.15997H6.71822L6.74636 2.83191L6.77451 1.28L7.34316 2.80647L7.91181 4.33294L8.42661 4.36326L8.94131 4.39359L9.37748 3.19297C10.1157 1.16103 10.0712 1.18067 10.0805 2.88279L10.0889 4.38382H10.6498H11.2107V2.19191V0L10.3243 0.0294098L9.43775 0.0588199L8.97353 1.35632C8.71817 2.07 8.48056 2.65382 8.44547 2.65382C8.41039 2.65382 8.25569 2.29897 8.1018 1.86514C7.94791 1.43132 7.73212 0.836099 7.62238 0.542202L7.4227 0.00793756H6.51222H5.60173V2.19588ZM12.2305 2.19588V4.38382H14.0718H15.913L15.8819 3.90044L15.8508 3.41705L14.6016 3.38846L13.3523 3.35986V3.00684V2.65382H14.5761H15.7999V2.19588V1.73794H14.5761H13.3523V1.38492V1.03189L14.6016 1.0033L15.8508 0.974702L15.8819 0.49132L15.913 0.00793756H14.0718H12.2305V2.19588ZM16.6392 2.17044L16.6667 4.33294L17.2531 4.36347L17.8395 4.394V3.62567C17.8395 2.8947 17.8506 2.85765 18.0689 2.86427C18.2236 2.86885 18.5098 3.11756 18.9471 3.6275L19.5958 4.38382H20.3066H21.0174L20.3 3.59921L19.5826 2.81461L19.8583 2.68862C20.4643 2.41162 20.6949 2.06582 20.6949 1.43427C20.6949 0.835793 20.4503 0.432907 19.9489 0.205666C19.5945 0.0451835 19.2755 0.0120081 18.0669 0.0101763L16.6116 0.00793756L16.6392 2.17044ZM21.4088 2.19588V4.38382H21.9697H22.5306V2.19588V0.00793756H21.9697H21.4088V2.19588ZM24.6481 0.109295C23.6913 0.39678 23.21 1.09336 23.2113 2.18906C23.213 3.57998 23.9966 4.38087 25.3579 4.38321C25.6928 4.38382 25.8577 4.19413 26.0429 3.59514C26.1106 3.37635 26.088 3.36617 25.538 3.36617C25.0378 3.36617 24.9234 3.3272 24.6644 3.06871C24.4069 2.81176 24.3663 2.69473 24.3663 2.20941C24.3663 1.76226 24.4165 1.58926 24.6124 1.36202C24.8429 1.09448 24.9168 1.07423 25.7851 1.04095L26.7118 1.00533V0.506686V0.00793756L25.8195 0.0166892C25.3288 0.0214721 24.8016 0.0631956 24.6481 0.109295ZM27.2892 2.05504C26.7934 3.18462 26.3641 4.17072 26.3349 4.24634C26.2941 4.35248 26.4229 4.38382 26.9001 4.38382H27.5181L27.7211 3.92588L27.9242 3.46794H28.9413H29.9584L30.1336 3.92588L30.3089 4.38382H30.9547C31.5272 4.38382 31.593 4.36357 31.5339 4.20573C31.4972 4.10773 31.0706 3.13466 30.5857 2.04323L29.7042 0.0588199L28.9474 0.0300204L28.1906 0.00111918L27.2892 2.05504ZM31.9129 2.19588V4.38382H32.4738H33.0347L33.0359 2.98455L33.037 1.58529L33.9562 2.98455L34.8752 4.38382H35.5867H36.2981V2.19588V0.00793756H35.7401H35.1822L35.1537 1.34574L35.1253 2.68353L34.2325 1.34574L33.3398 0.00793756H32.6263H31.9129V2.19588ZM19.4701 1.17691C19.6495 1.39265 19.5159 1.80398 19.2428 1.87705C19.116 1.91094 18.7483 1.93933 18.4259 1.94004L17.8395 1.94147V1.48353V1.02558H18.5919C19.1333 1.02558 19.3795 1.06802 19.4701 1.17691ZM3.20231 2.33967C3.26574 2.53903 3.23209 2.55205 2.65365 2.55205C1.95661 2.55205 1.97619 2.64079 2.44061 1.58529L2.66446 1.07647L2.89963 1.60188C3.02894 1.89089 3.16519 2.22285 3.20231 2.33967ZM29.2962 1.91603L29.553 2.55205H28.9483C28.6156 2.55205 28.3435 2.52967 28.3435 2.50229C28.3435 2.30324 28.8972 1.13111 28.96 1.19685C29.0038 1.24255 29.1551 1.56626 29.2962 1.91603ZM5.60173 7.84382V9.98088H7.43739H9.27305V9.52609V9.0713L8.02378 9.04271L6.77451 9.01411L6.7428 8.68653L6.71108 8.35905L7.96657 8.33036L9.22206 8.30176L9.25317 7.81838L9.28427 7.335H8.00389H6.72352V6.97882V6.62264H7.99829H9.27305V6.1647V5.70676H7.43739H5.60173V7.84382ZM9.68098 5.75286C9.68098 5.7782 10.0711 6.23695 10.5478 6.77234C11.0246 7.30772 11.4127 7.7793 11.4103 7.82021C11.4078 7.86122 10.9955 8.35264 10.4939 8.91235L9.58195 9.92999L10.2688 9.96164L10.9557 9.99339L11.5631 9.31493L12.1704 8.63636L12.7869 9.31523L13.4033 9.99411L14.104 9.96205L14.8048 9.92999L13.8745 8.88029C13.363 8.30308 12.9444 7.80505 12.9444 7.7737C12.9444 7.74236 13.3443 7.27597 13.8332 6.73723L14.7221 5.75764L14.0117 5.72671C13.3417 5.6975 13.2874 5.71205 13.0574 5.98112C12.9233 6.13804 12.6759 6.4243 12.5076 6.61715L12.2016 6.96783L11.6297 6.33495L11.0577 5.70208L10.3693 5.70442C9.99069 5.70574 9.68098 5.72752 9.68098 5.75286ZM15.086 7.84382V9.98088H15.6469H16.2078V9.26852V8.55617H17.1307C18.1187 8.55617 18.4286 8.45787 18.8456 8.01244C19.364 7.45874 19.1942 6.3145 18.534 5.91294C18.2344 5.73067 18.0212 5.70747 16.6412 5.70717L15.086 5.70676V7.84382ZM19.6751 7.837V9.98088H20.2315H20.788L20.8179 9.24308C20.8448 8.58395 20.8707 8.50203 21.0608 8.47496C21.2179 8.45257 21.4448 8.64501 21.9276 9.21021L22.5816 9.97589L23.2877 9.97843L23.9939 9.98088L23.7492 9.70102C23.6145 9.54716 23.2996 9.20472 23.0492 8.94013C22.7987 8.67554 22.614 8.44525 22.6387 8.42825C22.6634 8.41136 22.8536 8.32048 23.0614 8.22625C23.8418 7.87262 24.0014 6.72064 23.3588 6.07891L23.0372 5.75764L21.3561 5.72538L19.6751 5.69302V7.837ZM24.4683 7.84382V9.98088H26.3039H28.1396V9.52294V9.06499H26.8648H25.59V8.70882V8.35264H26.8138H28.0376V7.84382V7.335H26.8138H25.59V6.97882V6.62264H26.8648H28.1396V6.1647V5.70676H26.3039H24.4683V7.84382ZM29.406 5.80537C29.2893 5.85249 29.0713 6.03627 28.9216 6.21375C28.4206 6.80796 28.606 7.79914 29.2862 8.16234C29.4033 8.22493 29.9384 8.30481 30.4755 8.33982C31.3046 8.39396 31.457 8.4311 31.4868 8.5865C31.5645 8.99274 31.342 9.06499 30.0138 9.06499H28.7515V9.52294V9.98088H30.1843C31.7388 9.98088 32.0202 9.90873 32.4138 9.40947C32.6766 9.07598 32.7075 8.20763 32.4686 7.86722C32.2078 7.49578 31.9096 7.39504 30.9037 7.33825C30.1607 7.29622 29.9215 7.24605 29.8388 7.11457C29.7616 6.99184 29.7691 6.90046 29.8661 6.78384C29.9727 6.65572 30.2171 6.62264 31.0564 6.62264H32.1127L32.3188 6.21965C32.4321 5.99801 32.5248 5.79194 32.5248 5.76171C32.5248 5.67175 29.6368 5.71226 29.406 5.80537ZM33.5751 5.90622C32.9841 6.26575 32.7939 6.90819 33.0776 7.58595C33.2846 8.08032 33.7298 8.27418 34.8193 8.3444C35.6894 8.40047 35.739 8.41614 35.7715 8.64644C35.7905 8.78005 35.7446 8.92812 35.6696 8.97565C35.5946 9.02307 34.9711 9.06255 34.2839 9.06347L33.0347 9.06499V9.52294V9.98088H34.4895C36.2512 9.98088 36.5402 9.87636 36.8543 9.12524C37.0367 8.68887 37.041 8.61357 36.9053 8.23012C36.6694 7.56407 36.3477 7.39473 35.205 7.3351C34.4426 7.29531 34.2052 7.24697 34.122 7.11457C34.0448 6.99184 34.0523 6.90046 34.1493 6.78384C34.2565 6.655 34.5041 6.62264 35.3828 6.62264H36.482L36.5836 6.34279C36.6394 6.18882 36.7177 5.98285 36.7575 5.88485C36.8244 5.72019 36.7198 5.70676 35.3657 5.70717C34.0934 5.70747 33.8587 5.73352 33.5751 5.90622ZM17.8569 6.79106C18.0975 7.00823 18.0927 7.18408 17.8395 7.43676C17.6744 7.60152 17.4996 7.64029 16.9216 7.64029H16.2078V7.13147V6.62264H16.9391C17.4765 6.62264 17.7199 6.66732 17.8569 6.79106ZM22.4724 6.78251C22.677 6.98676 22.6756 7.17584 22.4681 7.38282C22.3409 7.50973 22.1384 7.54026 21.5758 7.51736C20.8605 7.48815 20.8473 7.48266 20.8148 7.19924C20.7551 6.67892 20.8319 6.62264 21.6023 6.62264C22.1116 6.62264 22.3573 6.66783 22.4724 6.78251Z" fill="#006FCF"/>
</svg>
