<svg width="30" height="13" viewBox="0 0 30 13" fill="none" xmlns="http://www.w3.org/2000/svg">
<path fill-rule="evenodd" clip-rule="evenodd" d="M5.33996 1.65916C4.99712 2.0935 4.44921 2.4356 3.90197 2.38564C3.83458 1.79743 4.10363 1.17306 4.41787 0.787668C4.76072 0.341071 5.35991 0.0235647 5.84456 -9.52503e-05C5.9005 0.612597 5.67711 1.21255 5.33996 1.65916ZM5.83444 2.50537C5.35231 2.47471 4.91202 2.65957 4.55639 2.80889C4.32753 2.90498 4.13373 2.98635 3.98639 2.9861C3.82105 2.98581 3.61955 2.89938 3.3933 2.80234C3.09685 2.67519 2.75792 2.52982 2.40222 2.53615C1.58692 2.54698 0.827792 3.04186 0.410225 3.83138C-0.447715 5.41038 0.18105 7.75158 1.00549 9.03946C1.40917 9.67726 1.89256 10.3765 2.53114 10.3531C2.81208 10.3422 3.01432 10.2504 3.22362 10.1554C3.46457 10.046 3.71489 9.93244 4.10543 9.93312C4.48242 9.93378 4.72141 10.0453 4.95082 10.1523C5.16895 10.254 5.37842 10.3517 5.68966 10.3463C6.35103 10.3352 6.76831 9.7111 7.1742 9.07471C7.61223 8.39169 7.80535 7.72469 7.83466 7.62347L7.8381 7.61176C7.8374 7.61101 7.83201 7.60835 7.8225 7.60365C7.67659 7.53156 6.56141 6.98059 6.55327 5.50833C6.54468 4.27257 7.4418 3.64803 7.58303 3.54972C7.59162 3.54374 7.59742 3.5397 7.60004 3.5376C7.03149 2.62997 6.14226 2.53041 5.83444 2.50537ZM10.3991 10.2871L10.4157 0.736828L13.7509 0.742635C15.4727 0.745633 16.6734 2.02192 16.6702 3.8842C16.667 5.74648 15.4389 7.03079 13.6944 7.02775L11.7844 7.02443L11.7788 10.2895L10.3991 10.2871ZM11.7931 1.98898L13.3837 1.99175C14.581 1.99384 15.2639 2.68113 15.2618 3.88794C15.2597 5.09474 14.5744 5.78578 13.3714 5.78369L11.7865 5.78093L11.7931 1.98898ZM21.2164 9.1604C20.8502 9.90713 20.0455 10.3774 19.1789 10.3759C17.8961 10.3737 17.0025 9.55125 17.0046 8.31381C17.0068 7.08863 17.8746 6.38566 19.4768 6.2843L21.1988 6.17704L21.1997 5.65021C21.2011 4.87221 20.7286 4.4487 19.8848 4.44723C19.1892 4.44602 18.6812 4.83107 18.5775 5.41898L17.3346 5.41682C17.3767 4.17945 18.4615 3.28083 19.9267 3.28338C21.506 3.28613 22.5307 4.17617 22.5283 5.5545L22.52 10.3082L21.2429 10.306L21.2449 9.16045L21.2164 9.1604ZM19.5514 9.24333C18.8159 9.24205 18.3491 8.86143 18.3501 8.27947C18.3512 7.67913 18.8022 7.33073 19.6631 7.2771L21.197 7.17563L21.196 7.71471C21.1945 8.60909 20.4864 9.24496 19.5514 9.24333ZM26.7553 10.6893C26.1994 12.3607 25.5656 12.911 24.2201 12.9086C24.1175 12.9084 23.7754 12.8956 23.6956 12.8709L23.6976 11.7254C23.7831 11.7378 23.994 11.7504 24.1024 11.7506C24.7124 11.7517 25.055 11.4766 25.2672 10.7602L25.3933 10.3378L23.0679 3.38077L24.5103 3.38328L26.1254 9.02808L26.1539 9.02813L27.7886 3.38899L29.1911 3.39143L26.7553 10.6893Z" fill="#262626"/>
</svg>
