<svg width="50" height="15" viewBox="0 0 50 15" fill="none" xmlns="http://www.w3.org/2000/svg">
<path d="M14.0783 11.8739C14.9858 10.6559 15.5266 9.16794 15.539 7.55399C15.5701 3.4081 12.1142 0.0301999 7.82554 0.000200756C3.53062 -0.0297984 0.0312897 3.30611 0.000212139 7.44599C-0.0122189 9.08394 0.522315 10.6019 1.43599 11.8439C1.65975 12.1499 1.90837 12.4378 2.18186 12.7078C3.58034 14.1058 5.53823 14.9818 7.71366 14.9998C10.1501 15.0178 12.3256 13.9498 13.7613 12.2699C13.8732 12.1379 13.9789 12.0059 14.0783 11.8739Z" fill="white"/>
<path d="M6.43345 1.80036C7.39364 1.16365 8.71389 1.51094 9.21199 2.5239L13.5868 11.4495C14.463 10.2745 14.9851 8.83895 14.9971 7.2819C15.0331 3.28796 11.6965 0.0291353 7.55567 0.000193679C3.40886 -0.0287479 0.0302106 3.18956 0.000204823 7.1835C-0.0117975 8.76371 0.504302 10.2281 1.38647 11.4263L1.56051 11.3916L4.41706 10.7838C4.49508 10.7665 4.54308 10.8707 4.47107 10.9112L2.10661 12.2656C3.45687 13.6143 5.34724 14.4594 7.44765 14.4768C9.8001 14.4941 11.9005 13.4638 13.2868 11.8431L6.13339 4.56718C5.32924 3.75102 5.47326 2.43708 6.43345 1.80036ZM7.77771 10.0082L3.16882 10.396C2.67072 10.4365 2.25064 10.0371 2.28665 9.55671C2.32265 9.07627 2.79675 8.74055 3.28284 8.85053L7.78371 9.87506C7.86773 9.88664 7.86173 10.0024 7.77771 10.0082ZM5.6473 6.10108L11.2344 10.4597C11.3004 10.5118 11.2404 10.6102 11.1624 10.5812L4.44106 8.1212C3.73893 7.86073 3.43887 7.05615 3.81094 6.43101C4.18902 5.80009 5.05918 5.6438 5.6473 6.10108Z" fill="#606060"/>
<path d="M49.3718 6.68448C49.7137 6.68448 49.9872 6.41449 49.9872 6.0905V5.35252H48.0604V3.72656H46.9975C46.6556 3.72656 46.3822 3.99656 46.3822 4.32055V5.34652H46.0714C45.7295 5.34652 45.4561 5.61651 45.4561 5.9405V6.67848H46.3884V9.06041C46.3884 9.4444 46.3946 9.79239 46.4008 10.0984C46.407 10.4044 46.494 10.7044 46.6619 10.9984C46.8421 11.3103 47.1094 11.5383 47.4574 11.6823C47.8055 11.8263 48.2033 11.8983 48.6446 11.9103C49.0859 11.9223 49.5396 11.8863 49.9996 11.8023V11.1004C49.9996 10.7644 49.7075 10.4944 49.3594 10.5064C49.204 10.5124 49.0611 10.5064 48.9181 10.5004C48.5949 10.4824 48.3525 10.3564 48.2095 10.1284C48.1287 10.0084 48.0914 9.84639 48.0852 9.6484C48.079 9.4504 48.079 9.22241 48.079 8.97042V6.68448H49.3718Z" fill="#606060"/>
<path d="M23.0545 3.21484H21.2707L18.0635 11.8006H19.4247C19.6857 11.8006 19.9157 11.6446 20.0027 11.4106L20.5435 10.0127H24.509L25.0497 11.4106C25.1367 11.6446 25.3729 11.8006 25.6277 11.8006H26.9889L24.0241 3.86883C23.875 3.47284 23.4896 3.21484 23.0545 3.21484ZM21.1091 8.53669L22.5262 4.8528L23.9433 8.53669H21.1091Z" fill="#606060"/>
<path d="M35.8443 5.19141C34.4333 5.19141 33.5197 5.79739 33.0473 6.98536L34.0604 7.32735C34.3028 7.41134 34.5763 7.33935 34.7441 7.14135C34.9617 6.88336 35.2103 6.66136 35.8256 6.66136C36.5963 6.66136 36.9071 6.92536 36.9693 7.62734L34.9057 7.96933C32.9975 8.26932 32.7676 9.40329 32.7676 10.0213C32.7676 10.6393 33.2524 11.9772 35.0922 11.9772C36.0245 11.9772 36.6958 11.6532 37.1309 11.2452C37.1557 11.5572 37.423 11.7972 37.7462 11.7972H38.6102V7.63934C38.6102 5.91739 37.4727 5.19141 35.8443 5.19141ZM35.3719 10.7052C34.7255 10.7052 34.4147 10.4953 34.4147 10.0993C34.4147 9.70328 34.7192 9.28329 35.7448 9.1093C36.3104 9.0133 36.7641 8.9353 37.0625 8.8813V9.28929C37.0625 10.1173 36.1985 10.7052 35.3719 10.7052Z" fill="#606060"/>
<path d="M31.5309 5.35938C31.2699 5.35938 31.0399 5.51537 30.9529 5.74936L29.4363 9.72125L27.9197 5.74936C27.8327 5.51537 27.5965 5.35938 27.3417 5.35938H26.0488L28.5972 11.8032H30.2754L32.8237 5.35938H31.5309Z" fill="#606060"/>
<path d="M45.1062 9.93937C45.1062 9.28538 44.7644 8.7094 44.2423 8.36741C44.2236 8.35541 44.205 8.34341 44.1863 8.33141C44.1863 8.33141 44.1863 8.33141 44.1801 8.33141C44.1677 8.32541 44.1615 8.31941 44.149 8.31341C44.0869 8.27741 44.0247 8.24141 43.9564 8.21141C43.714 8.09742 43.4467 8.00142 43.4467 8.00142C43.341 7.95942 43.2229 7.92342 43.1048 7.88142C41.9612 7.51543 41.4142 7.41944 41.4142 7.05345C41.4142 6.72946 41.8182 6.56146 42.2471 6.56146C42.5206 6.56146 42.9059 6.64546 43.2229 7.01745L43.2291 7.02345C43.2354 7.02945 43.2416 7.04145 43.2478 7.04745C43.2478 7.05345 43.254 7.05345 43.254 7.05945C43.3659 7.16744 43.5213 7.23944 43.6891 7.23944C43.7575 7.23944 43.8258 7.22744 43.888 7.20944H43.8942L44.8265 6.89745C44.5095 5.85948 43.5151 5.1875 42.1849 5.1875C41.6691 5.1875 41.2464 5.2655 40.9108 5.39749C40.2271 5.64349 39.7422 6.27947 39.7422 7.02345C39.7422 7.72543 40.1773 8.33141 40.7989 8.6074C41.1034 8.7574 41.4639 8.8894 41.8928 9.00939C43.0924 9.35138 43.3783 9.57938 43.3783 9.98736C43.3783 10.0354 43.3721 10.0834 43.3597 10.1254C43.3348 10.2094 43.2913 10.2814 43.2354 10.3414C43.0675 10.5093 42.7568 10.5933 42.3465 10.5933C41.8369 10.5933 41.3769 10.3894 41.0599 9.87937C40.9108 9.63937 40.6062 9.53738 40.3327 9.62737L39.4004 9.94537C39.7858 11.0313 40.5627 11.9853 42.3403 11.9853C43.1483 11.9853 43.7885 11.8113 44.2485 11.5113V11.5053C44.7644 11.1633 45.1062 10.5873 45.1062 9.93937Z" fill="#606060"/>
</svg>
