<svg width="20" height="15" viewBox="0 0 20 15" fill="none" xmlns="http://www.w3.org/2000/svg">
<g clip-path="url(#clip0_31_14)">
<rect width="20" height="15" fill="white"/>
<path fill-rule="evenodd" clip-rule="evenodd" d="M0 0V15H20V0H0Z" fill="#2E42A5"/>
<mask id="mask0_31_14" style="mask-type:luminance" maskUnits="userSpaceOnUse" x="0" y="0" width="20" height="15">
<path fill-rule="evenodd" clip-rule="evenodd" d="M0 0V15H20V0H0Z" fill="white"/>
</mask>
<g mask="url(#mask0_31_14)">
<path d="M-2.22656 13.9268L2.17449 15.7881L20.1003 2.02207L22.4217 -0.743853L17.7154 -1.36595L10.4039 4.56622L4.51893 8.56311L-2.22656 13.9268Z" fill="white"/>
<path d="M-1.625 15.2314L0.617135 16.3115L21.5872 -1.00031H18.4389L-1.625 15.2314Z" fill="#F50100"/>
<path d="M22.2266 13.9268L17.8255 15.7881L-0.100267 2.02207L-2.42172 -0.743853L2.28457 -1.36595L9.59607 4.56622L15.4811 8.56311L22.2266 13.9268Z" fill="white"/>
<path d="M22.0781 14.8622L19.836 15.9424L10.9067 8.53029L8.25941 7.70215L-2.64337 -0.734848H0.504852L11.4015 7.50189L14.2959 8.49492L22.0781 14.8622Z" fill="#F50100"/>
<mask id="path-7-inside-1_31_14" fill="white">
<path d="M12.3633 5H21.2695V10H12.3633V16.25H7.64062V10H-1.23047V5H7.64062V-1.25H12.3633V5Z"/>
</mask>
<path d="M12.3633 5H21.2695V10H12.3633V16.25H7.64062V10H-1.23047V5H7.64062V-1.25H12.3633V5Z" fill="#F50100"/>
<path d="M12.3633 5H11.1133V6.25H12.3633V5ZM21.2695 5H22.5195V3.75H21.2695V5ZM21.2695 10V11.25H22.5195V10H21.2695ZM12.3633 10V8.75H11.1133V10H12.3633ZM12.3633 16.25V17.5H13.6133V16.25H12.3633ZM7.64062 16.25H6.39062V17.5H7.64062V16.25ZM7.64062 10H8.89062V8.75H7.64062V10ZM-1.23047 10H-2.48047V11.25H-1.23047V10ZM-1.23047 5V3.75H-2.48047V5H-1.23047ZM7.64062 5V6.25H8.89062V5H7.64062ZM7.64062 -1.25V-2.5H6.39062V-1.25H7.64062ZM12.3633 -1.25H13.6133V-2.5H12.3633V-1.25ZM12.3633 5V6.25H21.2695V5V3.75H12.3633V5ZM21.2695 5H20.0195V10H21.2695H22.5195V5H21.2695ZM21.2695 10V8.75H12.3633V10V11.25H21.2695V10ZM12.3633 10H11.1133V16.25H12.3633H13.6133V10H12.3633ZM12.3633 16.25V15H7.64062V16.25V17.5H12.3633V16.25ZM7.64062 16.25H8.89062V10H7.64062H6.39062V16.25H7.64062ZM7.64062 10V8.75H-1.23047V10V11.25H7.64062V10ZM-1.23047 10H0.0195312V5H-1.23047H-2.48047V10H-1.23047ZM-1.23047 5V6.25H7.64062V5V3.75H-1.23047V5ZM7.64062 5H8.89062V-1.25H7.64062H6.39062V5H7.64062ZM7.64062 -1.25V0H12.3633V-1.25V-2.5H7.64062V-1.25ZM12.3633 -1.25H11.1133V5H12.3633H13.6133V-1.25H12.3633Z" fill="white" mask="url(#path-7-inside-1_31_14)"/>
</g>
</g>
<defs>
<clipPath id="clip0_31_14">
<rect width="20" height="15" fill="white"/>
</clipPath>
</defs>
</svg>
