<svg width="19" height="19" viewBox="0 0 19 19" fill="none" xmlns="http://www.w3.org/2000/svg">
<path d="M9.36632 6.24445C7.64601 6.24445 6.2421 7.64835 6.2421 9.36867C6.2421 11.089 7.64601 12.4929 9.36632 12.4929C11.0866 12.4929 12.4905 11.089 12.4905 9.36867C12.4905 7.64835 11.0866 6.24445 9.36632 6.24445ZM18.7366 9.36867C18.7366 8.07492 18.7484 6.79288 18.6757 5.50148C18.603 4.00148 18.2609 2.67023 17.164 1.57335C16.0648 0.474134 14.7359 0.134291 13.2359 0.0616346C11.9421 -0.0110216 10.6601 0.000697135 9.36866 0.000697135C8.07491 0.000697135 6.79288 -0.0110216 5.50148 0.0616346C4.00148 0.134291 2.67023 0.476478 1.57335 1.57335C0.474135 2.67257 0.134291 4.00148 0.0616346 5.50148C-0.0110216 6.79523 0.000697135 8.07726 0.000697135 9.36867C0.000697135 10.6601 -0.0110216 11.9444 0.0616346 13.2359C0.134291 14.7359 0.476478 16.0671 1.57335 17.164C2.67257 18.2632 4.00148 18.603 5.50148 18.6757C6.79523 18.7484 8.07726 18.7366 9.36866 18.7366C10.6624 18.7366 11.9444 18.7484 13.2359 18.6757C14.7359 18.603 16.0671 18.2609 17.164 17.164C18.2632 16.0648 18.603 14.7359 18.6757 13.2359C18.7507 11.9444 18.7366 10.6624 18.7366 9.36867ZM9.36632 14.1757C6.70617 14.1757 4.55929 12.0288 4.55929 9.36867C4.55929 6.70851 6.70617 4.56163 9.36632 4.56163C12.0265 4.56163 14.1734 6.70851 14.1734 9.36867C14.1734 12.0288 12.0265 14.1757 9.36632 14.1757ZM14.3702 5.48742C13.7491 5.48742 13.2476 4.98585 13.2476 4.36476C13.2476 3.74367 13.7491 3.2421 14.3702 3.2421C14.9913 3.2421 15.4929 3.74367 15.4929 4.36476C15.4931 4.51224 15.4642 4.65831 15.4078 4.7946C15.3515 4.93089 15.2688 5.05473 15.1645 5.15901C15.0602 5.2633 14.9364 5.34598 14.8001 5.40234C14.6638 5.45869 14.5177 5.4876 14.3702 5.48742Z" fill="#0848C9"/>
</svg>
