<svg width="20" height="20" viewBox="0 0 20 20" fill="none" xmlns="http://www.w3.org/2000/svg">
<path d="M10 0C15.633 0 20 4.127 20 9.7C20 15.273 15.633 19.4 10 19.4C9.02214 19.4025 8.04839 19.2734 7.105 19.016C6.9278 18.9673 6.73924 18.9811 6.571 19.055L4.586 19.931C4.46613 19.984 4.33508 20.0067 4.20437 19.9972C4.07367 19.9876 3.94731 19.9461 3.8364 19.8763C3.72549 19.8065 3.63344 19.7105 3.56833 19.5967C3.50322 19.483 3.46705 19.355 3.463 19.224L3.409 17.444C3.40527 17.3357 3.37949 17.2293 3.33324 17.1313C3.28699 17.0333 3.22123 16.9457 3.14 16.874C1.195 15.134 0 12.616 0 9.7C0 4.127 4.366 0 10 0ZM3.995 12.537C3.713 12.984 4.263 13.488 4.684 13.168L7.839 10.774C7.94313 10.6954 8.07004 10.6529 8.2005 10.6529C8.33097 10.6529 8.45787 10.6954 8.562 10.774L10.898 12.524C11.0638 12.6485 11.2536 12.7373 11.4555 12.7848C11.6573 12.8322 11.8668 12.8373 12.0707 12.7997C12.2746 12.7621 12.4685 12.6827 12.6402 12.5664C12.8118 12.4501 12.9575 12.2994 13.068 12.124L16.005 7.464C16.287 7.016 15.737 6.512 15.316 6.831L12.161 9.227C12.0569 9.3056 11.93 9.34813 11.7995 9.34813C11.669 9.34813 11.5421 9.3056 11.438 9.227L9.101 7.477C8.93523 7.35265 8.74549 7.264 8.54376 7.21664C8.34202 7.16927 8.13265 7.16422 7.92887 7.2018C7.72508 7.23938 7.53129 7.31878 7.35971 7.43499C7.18814 7.5512 7.04251 7.7017 6.932 7.877L3.995 12.537Z" fill="#0848C9"/>
</svg>
