<svg width="33" height="14" viewBox="0 0 33 14" fill="none" xmlns="http://www.w3.org/2000/svg">
<path fill-rule="evenodd" clip-rule="evenodd" d="M15.036 10.7602L15.043 6.72944L17.0775 6.73298C17.9111 6.73443 18.6153 6.45001 19.1899 5.88765L19.3278 5.74506C20.3777 4.58049 20.312 2.76334 19.1972 1.68228C18.6399 1.11001 17.8756 0.79923 17.0878 0.813728L13.8219 0.808042L13.8046 10.7581L15.036 10.7602ZM15.0453 5.50742L15.0513 2.03203L17.1167 2.03563C17.5604 2.0364 17.9808 2.2117 18.2939 2.52963C18.9583 3.1973 18.9716 4.30818 18.3279 4.99738C18.0136 5.33802 17.5696 5.52768 17.1107 5.51101L15.0453 5.50742Z" fill="#3C4043"/>
<path fill-rule="evenodd" clip-rule="evenodd" d="M25.0739 4.50133C24.5471 4.00053 23.8286 3.74536 22.9184 3.74378C21.7482 3.74174 20.8679 4.18455 20.2851 5.06429L21.3699 5.77236C21.7687 5.17002 22.3122 4.86945 23.0006 4.87065C23.4365 4.87141 23.8569 5.03877 24.1853 5.34086C24.506 5.62706 24.6888 6.03999 24.6881 6.47639L24.6876 6.76997C24.2138 6.49937 23.6175 6.35551 22.8833 6.35423C22.0267 6.35274 21.3379 6.55784 20.8248 6.97749C20.3116 7.39713 20.0506 7.9521 20.0494 8.65829C20.0329 9.30097 20.2996 9.9124 20.7731 10.3258C21.2541 10.771 21.8656 10.9942 22.5846 10.9955C23.4335 10.997 24.1073 10.6094 24.6211 9.83265L24.6746 9.83274L24.6729 10.777L25.8508 10.779L25.8581 6.58158C25.8596 5.70083 25.6008 5.00213 25.0739 4.50133ZM21.7231 9.51818C21.471 9.32731 21.3185 9.01759 21.3191 8.68433C21.3197 8.31141 21.4886 8.00225 21.8179 7.75685C22.1549 7.51146 22.5759 7.38524 23.0731 7.3861C23.7616 7.37936 24.2968 7.53899 24.6787 7.85704C24.6778 8.3966 24.4704 8.86438 24.0643 9.26041C23.6965 9.64063 23.1989 9.85401 22.6787 9.8531C22.3344 9.86043 21.9981 9.74083 21.7231 9.51818Z" fill="#3C4043"/>
<path d="M28.492 13.775L32.6238 3.98284L31.2854 3.98051L29.3724 8.86494L29.3495 8.8649L27.4076 3.97376L26.0692 3.97143L28.758 10.3477L27.2223 13.7728L28.492 13.775Z" fill="#3C4043"/>
<path d="M10.7933 5.84926C10.794 5.46046 10.7641 5.07161 10.7036 4.69064L5.51031 4.6816L5.50648 6.8795L8.4817 6.88468C8.35809 7.59065 7.95927 8.22473 7.37731 8.62045L7.37482 10.0487L9.14924 10.0518C10.1911 9.06176 10.7903 7.59488 10.7933 5.84926Z" fill="#4285F4"/>
<path d="M5.49878 11.4261C6.98256 11.4287 8.23757 10.923 9.14924 10.0518L7.37731 8.62045C6.87956 8.96871 6.24461 9.16603 5.50271 9.16473C4.06482 9.16223 2.85048 8.15241 2.41688 6.80276L0.588916 6.79958L0.586346 8.27542C1.51609 10.2052 3.41842 11.4225 5.49878 11.4261Z" fill="#34A853"/>
<path d="M2.41688 6.80276C2.18862 6.09618 2.19018 5.32648 2.42091 4.61276L2.42346 3.14485L0.595211 3.14167C-0.195501 4.75103 -0.198816 6.65535 0.586287 8.26745L2.41688 6.80276Z" fill="#FBBC04"/>
<path d="M5.51473 2.26155C6.30254 2.24705 7.05919 2.55782 7.62419 3.12217L9.2026 1.49037C8.20235 0.520598 6.88776 -0.0133147 5.51867 0.000170973C3.43831 -0.00345103 1.53167 1.21517 0.595211 3.14167L2.42068 4.6207C2.85899 3.26463 4.07684 2.25905 5.51473 2.26155Z" fill="#EA4335"/>
</svg>
