<svg width="19" height="16" viewBox="0 0 19 16" fill="none" xmlns="http://www.w3.org/2000/svg">
<path fill-rule="evenodd" clip-rule="evenodd" d="M16.2154 7.6726C16.9224 6.95439 17.3152 5.98472 17.3073 4.9769C17.2995 3.96908 16.8916 3.00567 16.1734 2.2986C15.8177 1.94849 15.3966 1.67186 14.9341 1.4845C14.4716 1.29713 13.9767 1.20271 13.4777 1.20661C12.4698 1.21448 11.5064 1.62239 10.7994 2.3406C10.6074 2.5326 10.3634 2.76827 10.0674 3.0476L9.24435 3.8226L8.42135 3.0476C8.12469 2.7676 7.88035 2.53193 7.68835 2.3406C6.97572 1.62796 6.00917 1.22761 5.00135 1.22761C3.99353 1.22761 3.02699 1.62796 2.31435 2.3406C0.846353 3.8096 0.829353 6.1846 2.26035 7.6606L9.24435 14.6446L16.2154 7.6726ZM1.46535 1.4926C1.92966 1.02817 2.48092 0.65975 3.08763 0.408394C3.69435 0.157038 4.34463 0.0276657 5.00135 0.0276657C5.65807 0.0276657 6.30836 0.157038 6.91508 0.408394C7.52179 0.65975 8.07304 1.02817 8.53735 1.4926C8.71935 1.67526 8.95502 1.9026 9.24435 2.1746C9.53235 1.9026 9.76802 1.67493 9.95135 1.4916C10.8819 0.546765 12.1496 0.010273 13.4757 0.000145999C14.8017 -0.00998096 16.0775 0.507086 17.0224 1.4376C17.9672 2.36811 18.5037 3.63584 18.5138 4.96191C18.5239 6.28798 18.0069 7.56376 17.0764 8.5086L9.95135 15.6346C9.76383 15.8221 9.50952 15.9274 9.24435 15.9274C8.97919 15.9274 8.72488 15.8221 8.53735 15.6346L1.41035 8.5076C0.496394 7.565 -0.0101369 6.30073 0.000153785 4.98783C0.0104444 3.67493 0.53673 2.41876 1.46535 1.4906V1.4926Z" fill="white"/>
</svg>
