<svg width="20" height="13" viewBox="0 0 20 13" fill="none" xmlns="http://www.w3.org/2000/svg">
<path d="M12.7127 1.29417L7.30459 1.28476L7.28817 10.7191L12.6962 10.7286L12.7127 1.29417Z" fill="#FF5F00"/>
<path d="M7.63978 6.00255C7.64051 5.09395 7.85417 4.19744 8.26458 3.38089C8.67499 2.56434 9.27139 1.84915 10.0086 1.28947C9.09808 0.592156 8.00382 0.157588 6.85093 0.0354349C5.69804 -0.086718 4.53304 0.108469 3.48909 0.598695C2.44513 1.08892 1.56434 1.8544 0.947402 2.80765C0.33046 3.76089 0.00225602 4.86343 0.000295909 5.98925C-0.0016642 7.11507 0.322699 8.21875 0.936318 9.17413C1.54994 10.1295 2.42805 10.8981 3.47029 11.3919C4.51253 11.8858 5.67685 12.085 6.83016 11.9669C7.98347 11.8487 9.07924 11.418 9.99222 10.7239C9.25692 10.1616 8.66302 9.44434 8.25545 8.62637C7.84789 7.80839 7.63735 6.91115 7.63978 6.00255Z" fill="#EB001B"/>
<path d="M20.0003 6.02407C19.9983 7.14987 19.6702 8.25241 19.0533 9.20565C18.4364 10.1589 17.5556 10.9244 16.5117 11.4146C15.4677 11.9048 14.3028 12.1 13.1499 11.9779C11.997 11.8557 10.9028 11.4212 9.99222 10.7239C10.7288 10.1636 11.3248 9.4483 11.7351 8.63188C12.1455 7.81545 12.3595 6.91922 12.3611 6.01077C12.3627 5.10231 12.1517 4.20534 11.7442 3.3875C11.3367 2.56965 10.7433 1.85228 10.0086 1.28947C10.9216 0.59533 12.0174 0.164572 13.1707 0.046436C14.3239 -0.0717002 15.4882 0.127551 16.5305 0.621414C17.5727 1.11528 18.4508 1.88382 19.0644 2.83921C19.6779 3.79459 20.0023 4.89826 20.0003 6.02407Z" fill="#F79E1B"/>
<path d="M19.4041 9.74099L19.4045 9.54784L19.4847 9.54798L19.4848 9.50863L19.2804 9.50827L19.2804 9.54762L19.3606 9.54776L19.3603 9.74091L19.4041 9.74099ZM19.8008 9.74168L19.8012 9.50879L19.7386 9.50869L19.6663 9.66874L19.5945 9.50843L19.5318 9.50833L19.5314 9.74121L19.5756 9.74129L19.5759 9.56562L19.6432 9.71719L19.6891 9.71727L19.7569 9.56555L19.7566 9.7416L19.8008 9.74168Z" fill="#F79E1B"/>
</svg>
