<svg width="31" height="8" viewBox="0 0 31 8" fill="none" xmlns="http://www.w3.org/2000/svg">
<path fill-rule="evenodd" clip-rule="evenodd" d="M0 6.97829V1.65644H1.33635V2.35454H1.5318C1.61817 2.16868 1.77726 1.99189 2.01816 1.82417C2.25453 1.65644 2.61361 1.57031 3.09543 1.57031C3.51361 1.57031 3.87724 1.66551 4.18633 1.8559C4.49996 2.04629 4.74087 2.30467 4.91359 2.64012C5.08632 2.97104 5.17268 3.36088 5.17268 3.80513V6.98282H3.81815V3.91392C3.81815 3.51501 3.71815 3.21129 3.5227 3.01184C3.32724 2.81238 3.04543 2.71265 2.67725 2.71265C2.25907 2.71265 1.93635 2.84864 1.70908 3.12516C1.47726 3.40168 1.36362 3.78699 1.36362 4.27657V6.98282L0 6.97829Z" fill="#606060"/>
<path fill-rule="evenodd" clip-rule="evenodd" d="M8.67336 5.92367C9.09154 5.92367 9.43244 5.78768 9.70517 5.52023C9.97789 5.25277 10.1143 4.86746 10.1143 4.36882V4.26003C10.1143 3.76139 9.9779 3.37607 9.70972 3.10862C9.44154 2.84117 9.09608 2.70518 8.67336 2.70518C8.25518 2.70518 7.91428 2.84117 7.64155 3.10862C7.36883 3.37607 7.23246 3.76139 7.23246 4.26003V4.36882C7.23246 4.86746 7.36883 5.25277 7.64155 5.52023C7.90973 5.78768 8.25518 5.92367 8.67336 5.92367ZM8.67336 7.12494C8.14155 7.12494 7.66428 7.01615 7.24155 6.80309C6.81883 6.59004 6.48247 6.27725 6.24156 5.86927C5.99611 5.4613 5.87793 4.97172 5.87793 4.40055V4.22829C5.87793 3.65712 6.00066 3.16755 6.24156 2.75957C6.48702 2.35159 6.81883 2.03881 7.24155 1.82576C7.66428 1.6127 8.14155 1.50391 8.67336 1.50391C9.20517 1.50391 9.68244 1.6127 10.1052 1.82576C10.5279 2.03881 10.8597 2.35159 11.1052 2.75957C11.3506 3.16755 11.4688 3.65712 11.4688 4.22829V4.40055C11.4688 4.97172 11.3461 5.4613 11.1052 5.86927C10.8597 6.27725 10.5279 6.59004 10.1052 6.80309C9.6779 7.01615 9.20517 7.12494 8.67336 7.12494Z" fill="#606060"/>
<path fill-rule="evenodd" clip-rule="evenodd" d="M12.1787 6.9781V1.65625H13.5151V2.25462H13.7105C13.7878 2.04156 13.9287 1.8965 14.1105 1.79678C14.2923 1.69705 14.4969 1.65625 14.7423 1.65625H15.3832V2.77139H14.7151C14.3241 2.78046 14.0878 2.92552 13.8651 3.11137C13.6423 3.2927 13.5332 3.57375 13.5332 3.95453V6.98263L12.1787 6.9781Z" fill="#606060"/>
<path fill-rule="evenodd" clip-rule="evenodd" d="M17.2877 6.97643C16.9377 6.97643 16.6513 6.86763 16.4332 6.65005C16.215 6.43246 16.1059 6.14234 16.1059 5.77516V2.76972H14.7695V1.65458H16.1059V0H17.4604V1.65458H18.924V2.76972H17.4604V5.53944C17.4604 5.75249 17.5604 5.86129 17.7604 5.86129H18.7922V6.97643H17.2877Z" fill="#606060"/>
<path fill-rule="evenodd" clip-rule="evenodd" d="M21.9543 5.92367C22.3724 5.92367 22.7134 5.78768 22.9861 5.52023C23.2588 5.25277 23.3952 4.86746 23.3952 4.36882V4.26003C23.3952 3.76139 23.2588 3.37607 22.9906 3.10862C22.7224 2.84117 22.377 2.70518 21.9543 2.70518C21.5361 2.70518 21.1952 2.84117 20.9225 3.10862C20.6497 3.37607 20.5134 3.76139 20.5134 4.26003V4.36882C20.5134 4.86746 20.6497 5.25277 20.9225 5.52023C21.1952 5.78768 21.5406 5.92367 21.9543 5.92367ZM21.9543 7.12494C21.4225 7.12494 20.9452 7.01615 20.5225 6.80309C20.0997 6.59004 19.7634 6.27725 19.5225 5.86927C19.277 5.4613 19.1543 4.97172 19.1543 4.40055V4.22829C19.1543 3.65712 19.277 3.16755 19.5225 2.75957C19.7679 2.35159 20.0997 2.03881 20.5225 1.82576C20.9452 1.6127 21.4225 1.50391 21.9543 1.50391C22.4861 1.50391 22.9634 1.6127 23.3861 1.82576C23.8088 2.03881 24.1406 2.35159 24.3861 2.75957C24.6315 3.16755 24.7497 3.65712 24.7497 4.22829V4.40055C24.7497 4.97172 24.627 5.4613 24.3861 5.86927C24.1406 6.27725 23.8088 6.59004 23.3861 6.80309C22.9634 7.01615 22.4861 7.12494 21.9543 7.12494Z" fill="#606060"/>
<path fill-rule="evenodd" clip-rule="evenodd" d="M25.46 6.97829V1.65644H26.7963V2.35454H26.9918C27.0781 2.16868 27.2372 1.99189 27.4781 1.82417C27.7145 1.65644 28.0736 1.57031 28.5554 1.57031C28.9736 1.57031 29.3372 1.66551 29.6463 1.8559C29.9599 2.04629 30.2008 2.30467 30.3736 2.64012C30.5463 2.97557 30.6326 3.36088 30.6326 3.80513V6.98282H29.2781V3.91392C29.2781 3.51501 29.1781 3.21129 28.9827 3.01184C28.7872 2.81238 28.5054 2.71265 28.1372 2.71265C27.719 2.71265 27.3963 2.84864 27.169 3.12516C26.9418 3.40168 26.8236 3.78699 26.8236 4.27657V6.98282L25.46 6.97829Z" fill="#606060"/>
</svg>
