<svg width="25" height="17" viewBox="0 0 25 17" fill="none" xmlns="http://www.w3.org/2000/svg">
<path d="M4.91466 0.00850824L11.143 0.0193521C12.0125 0.0208658 12.5519 0.747043 12.3476 1.63941L9.42564 14.3754C9.21945 15.2646 8.34769 15.989 7.47766 15.9875L1.2499 15.9766C0.381693 15.9751 -0.15901 15.2483 0.0453592 14.3591L2.96851 1.62308C3.17288 0.730714 4.04418 0.00699268 4.91466 0.00850824Z" fill="#E21836"/>
<path d="M10.6252 0.0182732L17.7877 0.0307434C18.6569 0.0322568 18.2637 0.75681 18.0577 1.64917L15.1362 14.3852C14.9312 15.2744 14.9934 16.0004 14.1223 15.9989L6.95984 15.9864C6.08875 15.9849 5.55093 15.2581 5.75712 14.3688L8.67845 1.63284C8.88586 0.740483 9.75533 0.0167587 10.6252 0.0182732Z" fill="#00447C"/>
<path d="M17.5028 0.0304797L23.7312 0.0413236C24.6019 0.0428394 25.1413 0.769017 24.9353 1.66138L22.0138 14.3974C21.8076 15.2866 20.9353 16.011 20.0648 16.0094L13.8393 15.9986C12.9682 15.9971 12.4292 15.2703 12.6348 14.381L15.5567 1.64505C15.7611 0.752685 16.6318 0.0289631 17.5028 0.0304797Z" fill="#007B84"/>
<path d="M6.53446 4.09439C5.89396 4.09995 5.70482 4.09294 5.64442 4.07823C5.621 4.19114 5.18524 6.23077 5.18402 6.23248C5.09024 6.64512 5.02202 6.93926 4.79169 7.12887C4.66094 7.2391 4.50843 7.29213 4.33172 7.29182C4.04768 7.29133 3.88246 7.14671 3.85516 6.87291L3.85001 6.7789C3.85001 6.7789 3.9375 6.22612 3.93751 6.22301C3.93751 6.22301 4.39436 4.36441 4.476 4.11877C4.48028 4.10479 4.48151 4.09749 4.48258 4.09081C3.59963 4.0972 3.44313 4.089 3.43238 4.07438C3.42642 4.09441 3.40436 4.20965 3.40436 4.20965L2.93753 6.30454L2.89745 6.48221L2.81947 7.06344C2.81917 7.2359 2.85202 7.37671 2.9177 7.49584C3.12806 7.87358 3.72989 7.93118 4.0704 7.93178C4.50914 7.93254 4.92087 7.83786 5.19929 7.66418C5.68256 7.3731 5.80966 6.91702 5.92301 6.51171L5.97559 6.30377C5.97559 6.30377 6.44623 4.37342 6.52607 4.12234C6.52913 4.10836 6.53035 4.10106 6.53446 4.09439ZM8.12163 5.65504C8.00898 5.65485 7.80308 5.68245 7.61801 5.77488C7.55085 5.81003 7.48732 5.85063 7.4203 5.89106L7.48111 5.66791L7.44808 5.63026C7.05581 5.71083 6.96805 5.72155 6.60573 5.77312L6.57533 5.79373C6.53266 6.15053 6.49485 6.41878 6.33772 7.11997C6.27791 7.37839 6.21582 7.63929 6.15358 7.89709L6.17022 7.9299C6.54144 7.9105 6.65408 7.9107 6.97667 7.9167L7.00283 7.88769C7.0442 7.6729 7.0496 7.62257 7.14114 7.18755C7.18416 6.98131 7.27391 6.52811 7.31806 6.36676C7.39874 6.32868 7.47836 6.29123 7.55426 6.29136C7.73507 6.29167 7.71278 6.45306 7.70568 6.51737C7.69775 6.62533 7.63125 6.97789 7.56317 7.28057L7.51774 7.47594C7.48606 7.62022 7.45136 7.76045 7.41968 7.90349L7.4333 7.9321C7.7992 7.91269 7.91078 7.91289 8.2232 7.91887L8.25998 7.88988C8.31704 7.5544 8.33375 7.46462 8.43479 6.97618L8.48558 6.75177C8.58427 6.31257 8.63384 6.08987 8.56007 5.90827C8.48209 5.70477 8.29424 5.65534 8.12163 5.65504ZM9.8969 6.11815C9.70236 6.15603 9.57829 6.1813 9.45499 6.19755C9.33275 6.21738 9.21354 6.23535 9.02555 6.26174L9.01065 6.27554L8.99697 6.28655C8.97714 6.42976 8.96326 6.55356 8.93704 6.69909C8.91477 6.8496 8.88062 7.0206 8.82508 7.26629C8.78209 7.45436 8.75997 7.51988 8.73556 7.58603C8.71177 7.65217 8.68554 7.71644 8.63725 7.9014L8.64845 7.91851L8.65784 7.93422C8.8335 7.92598 8.94843 7.92012 9.06654 7.91924C9.18451 7.91509 9.30671 7.91965 9.49586 7.92107L9.51243 7.90727L9.53022 7.89208C9.55784 7.72526 9.56201 7.68037 9.57886 7.59899C9.59555 7.51171 9.62431 7.39088 9.69485 7.06816C9.72821 6.91658 9.76537 6.76548 9.79994 6.6108C9.83589 6.45674 9.8735 6.30501 9.90929 6.15344L9.904 6.1351L9.8969 6.11815ZM9.90212 5.49792C9.7256 5.39087 9.41539 5.4242 9.20639 5.57128C8.99801 5.71541 8.97397 5.92044 9.14988 6.02888C9.32337 6.13297 9.63479 6.10259 9.84197 5.95427C10.0499 5.80704 10.0762 5.60387 9.90212 5.49792ZM10.9665 7.97168C11.324 7.97231 11.6907 7.87211 11.967 7.57337C12.1797 7.33106 12.2776 6.97016 12.3116 6.82154C12.4222 6.32892 12.3371 6.09868 12.23 5.95835C12.0674 5.74444 11.7793 5.67543 11.4804 5.6749C11.3007 5.67459 10.8725 5.69202 10.5376 6.00698C10.297 6.23417 10.1855 6.54284 10.118 6.83885C10.0499 7.14045 9.97126 7.68346 10.459 7.88644C10.6095 7.95289 10.8265 7.97144 10.9665 7.97168ZM10.9405 6.86281C11.0236 6.48977 11.1214 6.17673 11.3698 6.17716C11.5644 6.1775 11.5781 6.41057 11.4909 6.78484C11.4753 6.86793 11.4037 7.17683 11.3074 7.30825C11.2401 7.40524 11.1606 7.46398 11.0729 7.46383C11.0468 7.46379 10.8915 7.46352 10.8895 7.22751C10.8884 7.11099 10.9119 6.99202 10.9405 6.86281ZM13.2034 7.92759L13.2314 7.89858C13.2714 7.68379 13.278 7.6333 13.3665 7.19844C13.4107 6.99219 13.5023 6.539 13.5452 6.37765C13.626 6.33942 13.7043 6.30196 13.7826 6.30209C13.9622 6.30241 13.9401 6.46379 13.9328 6.5281C13.9261 6.63622 13.8596 6.98862 13.7903 7.29131L13.7473 7.48668C13.7144 7.63111 13.6787 7.77119 13.647 7.91438L13.6606 7.94299C14.0277 7.92359 14.135 7.92377 14.4493 7.92976L14.4873 7.90077C14.543 7.56513 14.558 7.47535 14.6621 6.98707L14.7117 6.7625C14.8108 6.3233 14.861 6.10075 14.7884 5.91916C14.7082 5.71565 14.5191 5.66623 14.3489 5.66593C14.2361 5.66574 14.0292 5.69319 13.8452 5.78577C13.7794 5.82093 13.7134 5.86136 13.6487 5.90195L13.7054 5.67879L13.6752 5.64099C13.2831 5.72172 13.1935 5.73244 12.8317 5.78401L12.8039 5.80462C12.7594 6.16142 12.7232 6.42951 12.5661 7.13086C12.5063 7.38928 12.4442 7.65018 12.3821 7.90798L12.3986 7.94079C12.7704 7.9214 12.8814 7.92159 13.2034 7.92759ZM15.9004 7.94681C15.9236 7.83157 16.0619 7.14852 16.0631 7.14852C16.0631 7.14852 16.1807 6.64737 16.1879 6.6292C16.1879 6.6292 16.2247 6.57707 16.2615 6.55647L16.3155 6.55656C16.8255 6.55745 17.4013 6.55845 17.8532 6.21946C18.1607 5.98695 18.3713 5.64318 18.4657 5.22511C18.4902 5.12261 18.5083 5.00068 18.5085 4.87872C18.5088 4.71854 18.4776 4.56002 18.3871 4.43603C18.1575 4.10611 17.6992 4.09925 17.1701 4.09584C17.1685 4.09584 16.9093 4.09788 16.9093 4.09788C16.2321 4.10524 15.9605 4.10228 15.8489 4.08811C15.8394 4.13858 15.8215 4.22835 15.8215 4.22835C15.8215 4.22835 15.5769 5.37855 15.5769 5.38041C15.5769 5.38041 14.9921 7.82575 14.9646 7.94099C15.5559 7.93471 15.7984 7.93514 15.9004 7.94681ZM16.3534 5.90363C16.3534 5.90363 16.6133 4.75579 16.6121 4.76014L16.6206 4.70127L16.6243 4.65638L16.7274 4.66743C16.7274 4.66743 17.2592 4.71512 17.2717 4.71639C17.4815 4.79987 17.5676 5.01427 17.5067 5.29382C17.4512 5.54929 17.2888 5.76388 17.0805 5.8673C16.909 5.95494 16.699 5.96187 16.4827 5.9615L16.3427 5.96125L16.3534 5.90363ZM17.9576 6.8963C17.8889 7.19354 17.8097 7.73656 18.295 7.93098C18.4497 7.99868 18.5884 8.01896 18.7295 8.01191C18.8784 8.00393 19.0165 7.92773 19.1446 7.81796C19.1329 7.86315 19.1213 7.90834 19.1097 7.95369L19.1317 7.98278C19.481 7.96832 19.5894 7.96851 19.9679 7.97212L20.0022 7.94545C20.0581 7.61307 20.1107 7.29032 20.2554 6.65451C20.3259 6.34996 20.3963 6.04837 20.4686 5.74507L20.4574 5.71165C20.0666 5.78508 19.9621 5.80074 19.5861 5.85462L19.5575 5.87834C19.5537 5.90925 19.5497 5.93892 19.546 5.96859C19.4877 5.87185 19.4031 5.7892 19.2725 5.73755C19.1055 5.66999 18.7127 5.756 18.3747 6.06986C18.1372 6.29395 18.0228 6.60137 17.9576 6.8963ZM18.7783 6.9159C18.8626 6.54955 18.9592 6.23961 19.2082 6.24004C19.3656 6.24031 19.4482 6.38914 19.4309 6.64267C19.4175 6.70588 19.4029 6.7725 19.3856 6.84782C19.3606 6.95669 19.3334 7.06462 19.3069 7.17271C19.2801 7.24661 19.2488 7.31632 19.2146 7.36271C19.1503 7.45551 18.9978 7.51288 18.9101 7.51273C18.8852 7.51268 18.7315 7.51242 18.7266 7.28061C18.7256 7.16517 18.7491 7.04636 18.7783 6.9159ZM23.0661 5.71322L23.036 5.6779C22.6491 5.7574 22.5791 5.77001 22.2238 5.81849L22.1977 5.84517C22.1964 5.84952 22.1954 5.85619 22.1935 5.86225L22.1923 5.85619C21.9268 6.48013 21.9348 6.34545 21.7186 6.83664C21.7175 6.81427 21.7175 6.80029 21.7163 6.77651L21.6643 5.71078L21.6305 5.67546C21.2253 5.75492 21.2157 5.76764 20.8416 5.81608L20.8124 5.84276C20.8083 5.85549 20.8082 5.86947 20.8058 5.88469L20.8082 5.89014C20.8545 6.13476 20.8434 6.08021 20.8896 6.46621C20.9112 6.65564 20.94 6.84616 20.9615 7.03326C20.9979 7.34638 21.0182 7.50054 21.0625 7.97836C20.8091 8.40454 20.749 8.56586 20.5052 8.93986L20.5068 8.9436L20.3351 9.22047C20.3155 9.24964 20.2977 9.26965 20.2728 9.27815C20.2454 9.29193 20.2099 9.29436 20.1606 9.29427L20.0657 9.29411L19.9238 9.77393L20.4076 9.78332C20.6917 9.78257 20.8704 9.64694 20.9668 9.4644L21.272 8.93141L21.2671 8.9314L21.2992 8.89386C21.5047 8.44335 23.0661 5.71322 23.0661 5.71322ZM17.9487 12.0094L17.7435 12.009L18.5076 9.43891L18.7596 9.43935L18.8401 9.17459L18.8473 9.46918C18.8376 9.65125 18.9773 9.81291 19.345 9.78683L19.7702 9.78757L19.9174 9.29268L19.7574 9.2924C19.6654 9.29224 19.6228 9.2684 19.6282 9.21745L19.621 8.91774L18.8335 8.91637L18.8335 8.91792C18.5789 8.92292 17.8186 8.94117 17.6646 8.98285C17.4783 9.03162 17.2817 9.17577 17.2817 9.17577L17.3593 8.91069L16.6227 8.90941L16.4683 9.43536L15.6939 12.0447L15.5446 12.0445L15.3972 12.5358L16.8643 12.5384L16.8148 12.7022L17.5378 12.7034L17.586 12.5396L17.7888 12.54L17.9487 12.0094ZM17.3503 9.95938C17.2323 9.99258 17.0126 10.0935 17.0126 10.0935L17.209 9.43665L17.7942 9.43767L17.6522 9.91625C17.6522 9.91625 17.4714 9.92681 17.3503 9.95938ZM17.3599 10.8983C17.3599 10.8983 17.1761 10.9216 17.055 10.9493C16.9358 10.9861 16.7121 11.1022 16.7121 11.1022L16.9149 10.4187L17.5032 10.4197L17.3599 10.8983ZM17.0301 12.0138L16.443 12.0128L16.6142 11.4359L17.1994 11.4369L17.0301 12.0138ZM18.4466 10.4213L19.2928 10.4228L19.1705 10.8256L18.3131 10.8241L18.1836 11.2645L18.9338 11.2658L18.3643 12.0834C18.3244 12.1435 18.2887 12.1647 18.2491 12.1816C18.2093 12.2022 18.157 12.2263 18.0966 12.2262L17.8885 12.2258L17.7446 12.7081L18.289 12.7091C18.572 12.7096 18.7394 12.5781 18.8631 12.4054L19.2536 11.8605L19.3363 12.4146C19.3538 12.5185 19.4266 12.5793 19.4759 12.603C19.5304 12.6311 19.5866 12.6792 19.6661 12.6865C19.7514 12.6904 19.8131 12.6934 19.8541 12.6935L20.1215 12.694L20.2831 12.1542L20.1776 12.154C20.117 12.1539 20.0127 12.1433 19.995 12.1239C19.9773 12.1002 19.9774 12.0639 19.9679 12.0085L19.884 11.4531L19.5365 11.4525L19.6892 11.2671L20.545 11.2686L20.6774 10.8282L19.8851 10.8268L20.0092 10.424L20.7991 10.4254L20.9465 9.92867L18.5916 9.92457L18.4466 10.4213ZM11.2966 12.1161L11.4953 11.444L12.3071 11.4454L12.4562 10.9455L11.6437 10.9441L11.7685 10.5305L12.5625 10.5318L12.7104 10.0478L10.7238 10.0444L10.5789 10.5284L11.0302 10.5292L10.9091 10.9429L10.4566 10.9421L10.3057 11.4505L10.7569 11.4513L10.4921 12.3404C10.4564 12.4581 10.5085 12.5031 10.5415 12.5578C10.5753 12.6112 10.6095 12.6465 10.6866 12.6667C10.7661 12.685 10.8206 12.696 10.8947 12.6961L11.8098 12.6977L11.9738 12.144L11.5681 12.2003C11.4897 12.2001 11.2728 12.1901 11.2966 12.1161ZM11.3953 8.89728L11.189 9.27741C11.1448 9.36045 11.1051 9.41196 11.0694 9.43567C11.0379 9.45566 10.9757 9.46394 10.8855 9.46378L10.7782 9.4636L10.6338 9.9501L10.9903 9.95072C11.1617 9.95102 11.2934 9.88693 11.3563 9.85488C11.424 9.81802 11.4417 9.83918 11.494 9.78769L11.6146 9.68116L12.7276 9.6831L12.8762 9.17656L12.0615 9.17514L12.2042 8.89869L11.3953 8.89728ZM13.033 12.1289C13.0141 12.1009 13.0278 12.0516 13.057 11.9491L13.363 10.9191L14.4453 10.921C14.603 10.919 14.7169 10.9173 14.791 10.912C14.8705 10.9036 14.9571 10.8747 15.0515 10.8227C15.1489 10.7681 15.1988 10.7106 15.241 10.6445C15.288 10.5785 15.3635 10.4342 15.4286 10.2115L15.8133 8.90803L14.6902 8.91276C14.6902 8.91276 14.3442 8.96436 14.1919 9.02173C14.0381 9.08579 13.8183 9.265 13.8183 9.265L13.9203 8.90769L13.2265 8.90648L12.2495 12.2014C12.2148 12.3294 12.1916 12.4223 12.1862 12.478C12.1843 12.5382 12.2601 12.5978 12.3092 12.6428C12.3672 12.6878 12.4532 12.6806 12.5356 12.6881C12.6223 12.6949 12.7455 12.6993 12.9157 12.6996L13.4489 12.7005L13.6135 12.1353L13.1361 12.1806C13.0851 12.1805 13.0483 12.1525 13.033 12.1289ZM13.5605 10.2235L14.6973 10.2254L14.6246 10.4571C14.6144 10.4625 14.5902 10.4456 14.4745 10.4593L13.4901 10.4576L13.5605 10.2235ZM13.7896 9.44642L14.9359 9.44841L14.853 9.72746C14.853 9.72746 14.3127 9.72108 14.2261 9.73724C13.8453 9.80401 13.6225 10.0118 13.6225 10.0118L13.7896 9.44642ZM14.6487 11.2334C14.6392 11.268 14.6243 11.2891 14.6035 11.3049C14.5804 11.3201 14.543 11.3255 14.4873 11.3254L14.3253 11.3251L14.3354 11.0428L13.6617 11.0417L13.6319 12.4217C13.6307 12.5213 13.64 12.579 13.7111 12.6252C13.7822 12.683 14.0016 12.6907 14.2969 12.6912L14.719 12.6919L14.8724 12.1756L14.5048 12.1956L14.3826 12.2027C14.3659 12.1954 14.3499 12.1887 14.3322 12.1705C14.3168 12.1548 14.2906 12.1643 14.2951 12.0648L14.2986 11.711L14.684 11.6954C14.8922 11.6957 14.9813 11.6266 15.0573 11.5607C15.1298 11.4976 15.1536 11.4249 15.1811 11.3266L15.2463 11.0135L14.7166 11.0126L14.6487 11.2334Z" fill="#FEFEFE"/>
</svg>
