<svg width="18" height="14" viewBox="0 0 18 14" fill="none" xmlns="http://www.w3.org/2000/svg">
<path fill-rule="evenodd" clip-rule="evenodd" d="M8.6 4C6.94315 4 5.6 5.34315 5.6 7C5.6 8.65685 6.94315 10 8.6 10C10.2569 10 11.6 8.65685 11.6 7C11.6 5.34315 10.2569 4 8.6 4ZM6.8 7C6.8 6.00589 7.60589 5.2 8.6 5.2C9.59411 5.2 10.4 6.00589 10.4 7C10.4 7.99411 9.59411 8.8 8.6 8.8C7.60589 8.8 6.8 7.99411 6.8 7Z" fill="white"/>
<path fill-rule="evenodd" clip-rule="evenodd" d="M8.6 0C4.98869 0 2.55623 2.16336 1.14445 3.99749L1.11899 4.03056C0.799711 4.44523 0.505648 4.82714 0.30615 5.27872C0.0925156 5.7623 0 6.28935 0 7C0 7.71065 0.0925157 8.2377 0.30615 8.72128C0.505649 9.17287 0.799713 9.55478 1.119 9.96945L1.14445 10.0025C2.55623 11.8366 4.98869 14 8.6 14C12.2113 14 14.6438 11.8366 16.0555 10.0025L16.081 9.96946C16.4003 9.55479 16.6943 9.17287 16.8939 8.72128C17.1075 8.2377 17.2 7.71065 17.2 7C17.2 6.28935 17.1075 5.7623 16.8939 5.27872C16.6943 4.82713 16.4003 4.44521 16.081 4.03054L16.0555 3.99749C14.6438 2.16336 12.2113 0 8.6 0ZM2.09537 4.72944C3.39891 3.03594 5.52029 1.2 8.6 1.2C11.6797 1.2 13.8011 3.03594 15.1046 4.72944C15.4555 5.18527 15.661 5.45765 15.7962 5.76364C15.9225 6.04961 16 6.39915 16 7C16 7.60085 15.9225 7.95039 15.7962 8.23636C15.661 8.54236 15.4555 8.81473 15.1046 9.27056C13.8011 10.9641 11.6797 12.8 8.6 12.8C5.52029 12.8 3.39891 10.9641 2.09537 9.27056C1.74451 8.81473 1.53899 8.54236 1.40381 8.23636C1.27747 7.95039 1.2 7.60085 1.2 7C1.2 6.39915 1.27747 6.04961 1.40381 5.76364C1.53899 5.45765 1.74451 5.18527 2.09537 4.72944Z" fill="white"/>
</svg>
