<svg width="30" height="10" viewBox="0 0 30 10" fill="none" xmlns="http://www.w3.org/2000/svg">
<path fill-rule="evenodd" clip-rule="evenodd" d="M7.50015 9.92413H4.9039L2.95702 2.16642C2.86461 1.80956 2.66841 1.49408 2.3798 1.34539C1.65953 0.971728 0.86584 0.674349 0 0.524366V0.225694H4.18236C4.75959 0.225694 5.19251 0.674349 5.26466 1.19541L6.27481 6.79131L8.8698 0.225694H11.3939L7.50015 9.92413ZM12.8352 9.92413H10.3833L12.4023 0.225694H14.8543L12.8352 9.92413ZM18.0289 2.91044C18.1011 2.38808 18.534 2.08941 19.0391 2.08941C19.8328 2.01442 20.6974 2.1644 21.4189 2.53677L21.8518 0.448655C21.1303 0.149982 20.3366 0 19.6163 0C17.2365 0 15.5048 1.34338 15.5048 3.20782C15.5048 4.62618 16.7315 5.37092 17.5973 5.81958C18.534 6.26694 18.8948 6.56561 18.8226 7.01298C18.8226 7.68402 18.1011 7.98269 17.3808 7.98269C16.515 7.98269 15.6492 7.75901 14.8567 7.38535L14.4238 9.47476C15.2897 9.84713 16.2264 9.99711 17.0922 9.99711C19.7606 10.0708 21.4189 8.72872 21.4189 6.7143C21.4189 4.17753 18.0289 4.02884 18.0289 2.91044ZM30 9.92413L28.0531 0.225694H25.962C25.529 0.225694 25.0961 0.524367 24.9518 0.971728L21.3467 9.92413H23.8708L24.3746 8.50706H27.4759L27.7645 9.92413H30ZM26.3193 2.83529L27.0395 6.49046H25.0205L26.3193 2.83529Z" fill="#172B85"/>
</svg>
